<svg version="1.1" viewBox="0.0 0.0 960.0 540.0" fill="none" stroke="none" stroke-linecap="square" stroke-miterlimit="10" xmlns:xlink="http://www.w3.org/1999/xlink" xmlns="http://www.w3.org/2000/svg"><clipPath id="g51dd5a9acb_0_1.0"><path d="m0 0l960.0 0l0 540.0l-960.0 0l0 -540.0z" clip-rule="nonzero"/></clipPath><g clip-path="url(#g51dd5a9acb_0_1.0)"><path fill="#ffffff" d="m0 0l960.0 0l0 540.0l-960.0 0z" fill-rule="evenodd"/><path fill="#eeeeee" d="m71.238846 156.93509l0 0c0 -19.468063 15.781982 -35.250053 35.250046 -35.250053l762.06683 0c9.348877 0 18.31488 3.7138367 24.925537 10.324501c6.6106567 6.610672 10.324524 15.57666 10.324524 24.925552l0 140.99597c0 19.468048 -15.781982 35.25003 -35.25006 35.25003l-762.06683 0c-19.468063 0 -35.250046 -15.781982 -35.250046 -35.25003z" fill-rule="evenodd"/><path stroke="#595959" stroke-width="1.0" stroke-linejoin="round" stroke-linecap="butt" d="m71.238846 156.93509l0 0c0 -19.468063 15.781982 -35.250053 35.250046 -35.250053l762.06683 0c9.348877 0 18.31488 3.7138367 24.925537 10.324501c6.6106567 6.610672 10.324524 15.57666 10.324524 24.925552l0 140.99597c0 19.468048 -15.781982 35.25003 -35.25006 35.25003l-762.06683 0c-19.468063 0 -35.250046 -15.781982 -35.250046 -35.25003z" fill-rule="evenodd"/><path fill="#000000" d="m144.95981 256.09308q46.875 -10.875 49.125 -49.875l-56.25 0l0 -8.25l57.0 0l5.25 -1.125l4.125 3.75q-1.5 49.875 -52.5 63.75l-6.75 -8.25zm96.75 -33.375l7.5 0.75q2.625 0.75 0 2.25l0 7.125q12.0 -9.0 17.25 -15.75l-51.75 1.5l-0.75 -6.75l56.625 -1.5l3.0 -1.125l4.5 5.625q1.125 2.25 -1.5 1.875q-8.625 10.125 -21.375 21.375l-6.0 -4.875q0.375 21.375 -19.5 35.625l-6.75 -5.625q18.75 -11.25 18.75 -29.25l0 -11.25zm46.875 12.0q39.375 -16.5 59.625 -46.5l7.125 6.0q3.0 2.25 -2.625 3.375q-7.125 9.375 -18.375 19.125l0 51.0l-8.625 0l0 -43.875q-13.125 10.125 -30.75 18.375l-6.375 -7.5zm129.75 16.5q16.5 -6.375 30.375 -25.5l5.25 7.125q-14.25 19.5 -36.0 28.125l-3.0 1.5l-6.0 -4.5l0.75 -1.875l0 -60.375l7.875 0q3.375 0.75 0.75 3.0l0 52.5zm-50.25 10.125q18.75 -18.0 18.75 -44.625l0 -16.875l7.875 0q3.375 0.75 0.75 3.0l0 13.5q0 31.5 -19.875 49.875l-7.5 -4.875zm148.49997 -28.5q3.0 0.375 0.375 2.25l0 8.25q0 23.625 -21.37497 27.375l-3.0 -7.875q16.875 -1.125 16.875 -20.25l0 -9.75l7.1249695 0zm26.25 19.875l7.125 2.25l-1.5 6.75q-1.5 6.375 -7.5 6.375l-10.875 0q-6.0 0 -6.0 -6.375l0 -28.875l7.125 0q3.0 0.375 0.375 2.25l0 22.875q0 3.0 2.625 3.0l4.875 0q1.875 0 2.625 -3.0l1.125 -5.25zm4.875 -15.0l-7.5 0l0 -9.0l-37.49997 0l0 9.375l-7.5 0l0 -16.5l52.49997 0l0 16.125zm-30.75 -53.25l7.125 0q3.0 0.375 0.375 2.25l0 7.875l22.125 0l0 7.125l-22.125 0l0 7.875l17.25 0l0 7.125l-40.49997 0l0 -7.125l15.7499695 0l0 -7.875l-19.87497 0l0 -7.125l19.87497 0l0 -10.125zm-26.99997 49.125l-23.25 0l0 -7.125l23.25 0l0 7.125zm0 -13.125l-23.25 0l0 -7.125l23.25 0l0 7.125zm3.0 -20.625l0 7.125l-30.0 0l0 -7.125l30.0 0zm-3.0 -6.0l-23.25 0l0 -7.125l23.25 0l0 7.125zm-4.875 75.375l0 -3.0l-13.5 0l0 4.5l-6.375 0l0 -30.375l26.25 0l0 28.875l-6.375 0zm0 -9.0l0 -13.875l-13.5 0l0 13.875l13.5 0zm142.50003 -21.75q-3.75 16.875 -14.625 28.875l-7.875 -4.5q11.625 -10.875 15.375 -27.0q-13.125 -4.875 -26.625 -6.75q-10.125061 21.75 -13.500061 25.125q-4.5 4.5 -10.5 4.5q-4.5 0 -7.5 -3.0q-3.375 -3.375 -3.375 -10.125q0 -7.875 7.5 -15.375q8.25 -8.25 22.125 -8.25q4.5 -11.625 8.250061 -21.75q-10.500061 2.625 -21.000061 4.875l-3.375 -7.5q12.375 -1.5 23.625061 -4.125l4.5 -1.875l6.375 4.875q3.75 2.25 -0.375 3.375q-4.875 8.625 -10.5 22.5q12.0 1.5 25.5 6.0q0.75 -9.0 0.375 -22.125l7.125 1.5q4.125 0.75 0.75 3.0q0 12.375 -0.75 20.25q7.125 2.625 16.5 7.5l-3.75 7.5q-7.875 -4.5 -14.25 -7.5zm-41.62506 -9.375q-8.625 0 -13.875 5.25q-6.0 6.0 -6.0 11.25q0 2.25 1.5 3.75q1.125 1.125 3.375 1.125q3.375 0 6.0 -4.125q2.25 -3.375 9.0 -17.25zm147.37506 23.25q-18.375 -15.0 -22.5 -33.75q-6.0 21.75 -24.375 35.25l-5.25 -8.625q25.875 -18.0 25.5 -48.0l-17.25 0l0 -8.25l24.75 0q-1.875 38.25 25.125 55.125l-6.0 8.25zm-77.625 8.625q6.75 -3.0 15.0 -7.875l0 -23.25l-14.25 0l0 -8.25l21.75 0l0 31.5q4.5 5.625 18.375 5.625l44.625 0l-1.5 8.25l-43.125 0q-15.375 0 -22.875 -9.0q-7.125 6.75 -13.5 11.25l-4.5 -8.25zm12.0 -73.875q7.125 4.5 14.625 13.875l-6.75 6.75q-6.75 -8.625 -14.25 -14.25l6.375 -6.375zm151.875 51.375q-3.75 16.875 -14.625 28.875l-7.875 -4.5q11.625 -10.875 15.375 -27.0q-13.125 -4.875 -26.625 -6.75q-10.125 21.75 -13.5 25.125q-4.5 4.5 -10.5 4.5q-4.5 0 -7.5 -3.0q-3.375 -3.375 -3.375 -10.125q0 -7.875 7.5 -15.375q8.25 -8.25 22.125 -8.25q4.5 -11.625 8.25 -21.75q-10.5 2.625 -21.0 4.875l-3.375 -7.5q12.375 -1.5 23.625 -4.125l4.5 -1.875l6.375 4.875q3.75 2.25 -0.375 3.375q-4.875 8.625 -10.5 22.5q12.0 1.5 25.5 6.0q0.75 -9.0 0.375 -22.125l7.125 1.5q4.125 0.75 0.75 3.0q0 12.375 -0.75 20.25q7.125 2.625 16.5 7.5l-3.75 7.5q-7.875 -4.5 -14.25 -7.5zm-41.625 -9.375q-8.625 0 -13.875 5.25q-6.0 6.0 -6.0 11.25q0 2.25 1.5 3.75q1.125 1.125 3.375 1.125q3.375 0 6.0 -4.125q2.25 -3.375 9.0 -17.25z" fill-rule="nonzero"/></g></svg>