<svg version="1.1" viewBox="0.0 0.0 960.0 540.0" fill="none" stroke="none" stroke-linecap="square" stroke-miterlimit="10" xmlns:xlink="http://www.w3.org/1999/xlink" xmlns="http://www.w3.org/2000/svg"><clipPath id="p.0"><path d="m0 0l960.0 0l0 540.0l-960.0 0l0 -540.0z" clip-rule="nonzero"/></clipPath><g clip-path="url(#p.0)"><path fill="#ffffff" d="m0 0l960.0 0l0 540.0l-960.0 0z" fill-rule="evenodd"/><path fill="#eeeeee" d="m63.716534 177.83536l0 0c0 -19.468079 15.781986 -35.25006 35.25005 -35.25006l762.0668 0c9.348938 0 18.314941 3.7138367 24.925598 10.324509c6.6106567 6.6106567 10.324463 15.576645 10.324463 24.925552l0 140.99597c0 19.468048 -15.781982 35.25003 -35.25006 35.25003l-762.0668 0c-19.468063 0 -35.25005 -15.781982 -35.25005 -35.25003z" fill-rule="evenodd"/><path stroke="#595959" stroke-width="1.0" stroke-linejoin="round" stroke-linecap="butt" d="m63.716534 177.83536l0 0c0 -19.468079 15.781986 -35.25006 35.25005 -35.25006l762.0668 0c9.348938 0 18.314941 3.7138367 24.925598 10.324509c6.6106567 6.6106567 10.324463 15.576645 10.324463 24.925552l0 140.99597c0 19.468048 -15.781982 35.25003 -35.25006 35.25003l-762.0668 0c-19.468063 0 -35.25005 -15.781982 -35.25005 -35.25003z" fill-rule="evenodd"/><path fill="#000000" d="m144.9375 276.99335q46.875 -10.875 49.125 -49.875015l-56.25 0l0 -8.25l57.0 0l5.25 -1.125l4.125 3.75q-1.5 49.875015 -52.5 63.750015l-6.75 -8.25zm96.75 -33.375015l7.5 0.75q2.625 0.75 0 2.25l0 7.125q12.0 -9.0 17.25 -15.75l-51.75 1.5l-0.75 -6.75l56.625 -1.5l3.0 -1.125l4.5 5.625q1.125 2.25 -1.5 1.875q-8.625 10.125 -21.375 21.375015l-6.0 -4.8750153q0.375 21.375015 -19.5 35.625015l-6.75 -5.625q18.75 -11.25 18.75 -29.250015l0 -11.25zm46.875 12.0q39.375 -16.5 59.625 -46.5l7.125 6.0q3.0 2.25 -2.625 3.375q-7.125 9.375 -18.375 19.125l0 51.000015l-8.625 0l0 -43.875015q-13.125 10.125 -30.75 18.375015l-6.375 -7.5000153zm129.75 16.500015q16.5 -6.375 30.375 -25.500015l5.25 7.125q-14.25 19.500015 -36.0 28.125015l-3.0 1.5l-6.0 -4.5l0.75 -1.875l0 -60.375015l7.875 0q3.375 0.75 0.75 3.0l0 52.500015zm-50.25 10.125q18.75 -18.0 18.75 -44.625015l0 -16.875l7.875 0q3.375 0.75 0.75 3.0l0 13.5q0 31.500015 -19.875 49.875015l-7.5 -4.875zm116.25 -12.75l0 3.75l43.125 0l0 -3.75l-43.125 0zm18.0 -52.125015l-26.25 0l0 -6.0l26.25 0l0 -6.75l7.125 0q3.0 0.375 0.375 2.25l0 4.5l25.875 0l0 10.125l12.375 0l0 6.0l-12.375 0l0 10.5l-25.875 0l0 4.5l27.375 0l0 6.0l-27.375 0l0 4.5l39.375 0l0 6.0000153l-86.25 0l0 -6.0000153l39.375 0l0 -4.5l-27.375 0l0 -6.0l27.375 0l0 -4.5l-26.625 0l0 -6.0l26.625 0l0 -4.5l-37.875 0l0 -6.0l37.875 0l0 -4.125zm-25.5 46.125015l58.125 0l0 27.375l-7.5 0l0 -1.875l-43.125 0l0 1.875l-7.5 0l0 -27.375zm7.5 15.75l0 3.75l43.125 0l0 -3.75l-43.125 0zm43.875 -57.750015l0 -4.125l-18.375 0l0 4.125l18.375 0zm-18.375 6.0l0 4.5l18.375 0l0 -4.5l-18.375 0zm88.875 0q1.5 4.5 4.5 9.375q12.0 -1.875 23.625 -5.25l3.375 7.875q-9.75 2.25 -22.875 4.125q5.625 7.5 14.625 14.250015l-6.375 6.375q-13.5 -3.0 -21.375 -3.0q-15.0 0 -19.5 4.5q-2.625 2.625 -2.625 5.625q0 3.75 2.25 6.0q3.0 3.0 16.875 3.0l22.875 0l-1.5 8.25l-22.875 0q-15.0 0 -21.0 -6.0q-4.5 -4.5 -4.5 -11.625q0 -5.625 4.125 -9.75q6.375 -6.3750153 26.25 -6.3750153q6.75 0 13.5 1.125q-5.25 -5.625 -9.375 -10.875q-17.625 2.25 -38.625 2.25l-1.125 -7.875q19.125 0.375 36.0 -1.5q-2.625 -4.875 -4.125 -9.375q-13.875 1.125 -28.875 1.125l-0.75 -7.5q15.375 0.375 27.75 -0.75q-1.875 -6.75 -3.0 -15.375l8.25 0q3.75 0.75 0.375 3.0q0.75 5.625 1.875 11.25q9.75 -1.125 19.875 -3.75l2.625 7.5q-12.75 2.25 -20.25 3.375zm119.625 45.750015q-18.375 -15.0 -22.5 -33.750015q-6.0 21.750015 -24.375 35.250015l-5.25 -8.625q25.875 -18.000015 25.5 -48.000015l-17.25 0l0 -8.25l24.75 0q-1.875 38.25 25.125 55.125015l-6.0 8.25zm-77.625 8.625q6.75 -3.0 15.0 -7.875l0 -23.250015l-14.25 0l0 -8.25l21.75 0l0 31.500015q4.5 5.625 18.375 5.625l44.625 0l-1.5 8.25l-43.125 0q-15.375 0 -22.875 -9.0q-7.125 6.75 -13.5 11.25l-4.5 -8.25zm12.0 -73.875015q7.125 4.5 14.625 13.875l-6.75 6.75q-6.75 -8.625 -14.25 -14.25l6.375 -6.375zm151.875 51.375015q-3.75 16.875 -14.625 28.875l-7.875 -4.5q11.625 -10.875 15.375 -27.0q-13.125 -4.8750153 -26.625 -6.7500153q-10.125 21.750015 -13.5 25.125015q-4.5 4.5 -10.5 4.5q-4.5 0 -7.5 -3.0q-3.375 -3.375 -3.375 -10.125q0 -7.875 7.5 -15.375015q8.25 -8.25 22.125 -8.25q4.5 -11.625 8.25 -21.75q-10.5 2.625 -21.0 4.875l-3.375 -7.5q12.375 -1.5 23.625 -4.125l4.5 -1.875l6.375 4.875q3.75 2.25 -0.375 3.375q-4.875 8.625 -10.5 22.5q12.0 1.5 25.5 6.0q0.75 -9.0 0.375 -22.125l7.125 1.5q4.125 0.75 0.75 3.0q0 12.375 -0.75 20.25q7.125 2.625 16.5 7.5000153l-3.75 7.5q-7.875 -4.5 -14.25 -7.5zm-41.625 -9.375015q-8.625 0 -13.875 5.25q-6.0 6.0000153 -6.0 11.250015q0 2.25 1.5 3.75q1.125 1.125 3.375 1.125q3.375 0 6.0 -4.125q2.25 -3.375 9.0 -17.250015z" fill-rule="nonzero"/></g></svg>