<svg version="1.1" viewBox="0.0 0.0 960.0 540.0" fill="none" stroke="none" stroke-linecap="square" stroke-miterlimit="10" xmlns:xlink="http://www.w3.org/1999/xlink" xmlns="http://www.w3.org/2000/svg"><clipPath id="g51dd5a9acb_0_5.0"><path d="m0 0l960.0 0l0 540.0l-960.0 0l0 -540.0z" clip-rule="nonzero"/></clipPath><g clip-path="url(#g51dd5a9acb_0_5.0)"><path fill="#ffffff" d="m0 0l960.0 0l0 540.0l-960.0 0z" fill-rule="evenodd"/><path fill="#eeeeee" d="m71.238846 156.93509l0 0c0 -19.468063 15.781982 -35.250053 35.250046 -35.250053l762.06683 0c9.348877 0 18.31488 3.7138367 24.925537 10.324501c6.6106567 6.610672 10.324524 15.57666 10.324524 24.925552l0 140.99597c0 19.468048 -15.781982 35.25003 -35.25006 35.25003l-762.06683 0c-19.468063 0 -35.250046 -15.781982 -35.250046 -35.25003z" fill-rule="evenodd"/><path stroke="#595959" stroke-width="1.0" stroke-linejoin="round" stroke-linecap="butt" d="m71.238846 156.93509l0 0c0 -19.468063 15.781982 -35.250053 35.250046 -35.250053l762.06683 0c9.348877 0 18.31488 3.7138367 24.925537 10.324501c6.6106567 6.610672 10.324524 15.57666 10.324524 24.925552l0 140.99597c0 19.468048 -15.781982 35.25003 -35.25006 35.25003l-762.06683 0c-19.468063 0 -35.250046 -15.781982 -35.250046 -35.25003z" fill-rule="evenodd"/><path fill="#000000" d="m257.2723 196.84308l8.625 0l0 27.0l30.75 0l0 -27.0l8.625 0l0 64.125l-8.625 0l0 -30.0l-30.75 0l0 30.0l-8.625 0l0 -64.125zm57.375 0l51.375 0l0 7.125l-21.375 0l0 57.0l-8.625 0l0 -57.0l-21.375 0l0 -7.125zm56.625 0l51.375 0l0 7.125l-21.375 0l0 57.0l-8.625 0l0 -57.0l-21.375 0l0 -7.125zm60.0 0l30.0 0q8.25 0 13.5 5.25q5.25 5.25 5.25 14.625q0 9.375 -4.875 14.25q-4.875 4.875 -13.875 4.875l-21.375 0l0 25.125l-8.625 0l0 -64.125zm8.625 7.125l0 24.75l19.5 0q5.25 0 8.25 -3.0q3.375 -3.375 3.375 -9.0q0 -6.375 -3.0 -9.375q-3.375 -3.375 -8.625 -3.375l-19.5 0zm114.37497 25.125q0 -16.5 8.625 -25.125q7.875 -7.875 19.125 -7.875q11.25 0 18.375061 7.125q6.0 6.0 6.375 14.625l-9.0 0q-0.375 -6.375 -4.500061 -10.5q-4.125 -4.125 -11.25 -4.125q-7.125 0 -12.0 4.875q-6.75 6.75 -6.75 21.0q0 13.5 7.125 20.625q4.875 4.875 13.5 4.875q6.375 0 10.500061 -4.125q4.125 -4.125 4.875 -8.625l0 -6.0l-10.875061 0l0 -7.125l19.500061 0l0 33.0l-6.375 0l-2.25 -6.375q-6.375061 6.375 -16.125061 6.375q-12.0 0 -19.5 -7.5q-9.375 -9.375 -9.375 -25.125zm65.62506 -32.25l41.25 0l0 7.125l-32.625 0l0 19.875l30.375 0l0 7.125l-30.375 0l0 22.875l34.5 0l0 7.125l-43.125 0l0 -64.125zm50.625 0l51.375 0l0 7.125l-21.375 0l0 57.0l-8.625 0l0 -57.0l-21.375 0l0 -7.125z" fill-rule="nonzero"/></g></svg>